<svg width="184" height="184" viewBox="0 0 184 184" fill="none" xmlns="http://www.w3.org/2000/svg">
<path d="M102.273 91.5199L135.068 58.8015C136.504 57.3654 137.31 55.4176 137.31 53.3866C137.31 51.3556 136.504 49.4078 135.068 47.9717C133.631 46.5356 131.684 45.7288 129.653 45.7288C127.622 45.7288 125.674 46.5356 124.238 47.9717L91.5194 80.7663L58.801 47.9717C57.3649 46.5356 55.4171 45.7288 53.3861 45.7288C51.3551 45.7288 49.4073 46.5356 47.9712 47.9717C46.535 49.4078 45.7282 51.3556 45.7282 53.3866C45.7282 55.4176 46.535 57.3654 47.9712 58.8015L80.7658 91.5199L47.9712 124.238C47.2563 124.947 46.6889 125.791 46.3018 126.72C45.9146 127.65 45.7152 128.646 45.7152 129.653C45.7152 130.66 45.9146 131.657 46.3018 132.586C46.6889 133.516 47.2563 134.359 47.9712 135.068C48.6802 135.783 49.5237 136.35 50.4531 136.738C51.3824 137.125 52.3793 137.324 53.3861 137.324C54.3929 137.324 55.3897 137.125 56.3191 136.738C57.2485 136.35 58.092 135.783 58.801 135.068L91.5194 102.273L124.238 135.068C124.947 135.783 125.79 136.35 126.72 136.738C127.649 137.125 128.646 137.324 129.653 137.324C130.659 137.324 131.656 137.125 132.586 136.738C133.515 136.35 134.359 135.783 135.068 135.068C135.782 134.359 136.35 133.516 136.737 132.586C137.124 131.657 137.324 130.66 137.324 129.653C137.324 128.646 137.124 127.65 136.737 126.72C136.35 125.791 135.782 124.947 135.068 124.238L102.273 91.5199Z" fill="white"/>
</svg>
