<svg width="54" height="51" viewBox="0 0 54 51" fill="none" xmlns="http://www.w3.org/2000/svg">
<path d="M54 25.658C54 11.4835 41.9057 0 27 0C12.0842 0 0 11.4835 0 25.658C0 38.4613 9.87019 49.0773 22.7812 51V33.0763H15.9249V25.6596H22.7812V20.0036C22.7812 13.5747 26.8059 10.0242 32.9754 10.0242C35.9303 10.0242 39.0234 10.5246 39.0234 10.5246V16.838H35.613C32.265 16.838 31.2188 18.8185 31.2188 20.8471V25.658H38.7062L37.503 33.0747H31.2188V50.9984C44.1197 49.0757 54 38.4597 54 25.6564V25.658Z" fill="black"/>
</svg>
