<svg width="52" height="51" viewBox="0 0 52 51" fill="none" xmlns="http://www.w3.org/2000/svg">
<path fill-rule="evenodd" clip-rule="evenodd" d="M15.2808 0.153C18.0541 0.0283281 18.9381 0 26 0C33.0633 0 33.9458 0.0297422 36.7177 0.153C39.4867 0.276258 41.3776 0.708344 43.0314 1.33875C44.7661 1.97929 46.3374 2.9829 47.6363 4.27976C48.9587 5.55344 49.9822 7.0947 50.635 8.79609C51.2777 10.4182 51.7168 12.2726 51.844 14.9869C51.9712 17.7069 52 18.5739 52 25.5C52 32.426 51.9697 33.293 51.844 36.0132C51.7183 38.7273 51.2777 40.5819 50.635 42.2039C49.9706 43.8799 49.0807 45.3035 47.6363 46.7202C46.3377 48.0172 44.7661 49.021 43.0314 49.6613C41.3776 50.2916 39.4867 50.7223 36.7193 50.847C33.9458 50.9717 33.0618 51 26 51C18.9381 51 18.0541 50.9703 15.2808 50.847C12.5132 50.7237 10.6224 50.2916 8.96856 49.6613C7.25977 49.0096 5.80812 48.1368 4.36367 46.7202C3.04115 45.4466 2.01779 43.9052 1.365 42.2039C0.722233 40.5819 0.283116 38.7273 0.156 36.0132C0.0288836 33.293 0 32.4274 0 25.5C0 18.5725 0.0303254 17.7069 0.156 14.9883C0.281674 12.2726 0.722233 10.4182 1.365 8.79609C2.0181 7.09482 3.04139 5.55362 4.36367 4.27976C5.6623 2.98267 7.23379 1.97899 8.96856 1.33875C10.6224 0.708344 12.5132 0.277672 15.2808 0.153ZM36.5068 4.743C33.7653 4.62116 32.942 4.59424 26 4.59424C19.058 4.59424 18.2347 4.62116 15.4931 4.743C12.9581 4.85634 11.5816 5.27141 10.6658 5.62134C9.45244 6.08316 8.58577 6.63566 7.67577 7.52816C6.76723 8.42066 6.20244 9.27066 5.73156 10.4607C5.37477 11.3588 4.95156 12.7089 4.836 15.1952C4.71177 17.884 4.68432 18.6915 4.68432 25.5C4.68432 32.3085 4.71177 33.1159 4.836 35.8048C4.95156 38.291 5.37477 39.6411 5.73156 40.5394C6.14808 41.6471 6.81245 42.649 7.67577 43.4719C8.51462 44.3185 9.53635 44.9702 10.6658 45.3786C11.5816 45.7287 12.9581 46.1436 15.4931 46.257C18.2347 46.3789 19.0566 46.4058 26 46.4058C32.9434 46.4058 33.7653 46.3789 36.5068 46.257C39.0418 46.1436 40.4184 45.7287 41.3343 45.3786C42.5476 44.9169 43.4143 44.3644 44.3243 43.4719C45.1875 42.6492 45.8519 41.6471 46.2684 40.5394C46.6253 39.6411 47.0484 38.291 47.164 35.8048C47.2883 33.1159 47.3157 32.3085 47.3157 25.5C47.3157 18.6915 47.2883 17.884 47.164 15.1952C47.0484 12.7089 46.6253 11.3588 46.2684 10.4607C45.7976 9.27066 45.2343 8.42066 44.3243 7.52816C43.4143 6.63709 42.5476 6.08316 41.3343 5.62134C40.4184 5.27141 39.0418 4.85634 36.5068 4.743ZM22.6803 33.3607C23.7328 33.7884 24.8607 34.0084 26 34.0084C28.301 34.0084 30.5075 33.112 32.1343 31.5164C33.7615 29.9208 34.6755 27.7565 34.6755 25.5C34.6755 23.2435 33.7615 21.0792 32.1343 19.4836C30.5075 17.8879 28.301 16.9915 26 16.9915C24.8607 16.9915 23.7328 17.2116 22.6803 17.6392C21.6275 18.0667 20.6713 18.6935 19.8657 19.4836C19.0601 20.2737 18.4211 21.2116 17.9851 22.2439C17.5491 23.2762 17.3247 24.3826 17.3247 25.5C17.3247 26.6174 17.5491 27.7238 17.9851 28.7561C18.4211 29.7884 19.0601 30.7263 19.8657 31.5164C20.6713 32.3064 21.6275 32.9332 22.6803 33.3607ZM16.5503 16.2319C19.0565 13.7739 22.4557 12.393 26 12.393C29.5445 12.393 32.9437 13.7739 35.4498 16.2319C37.956 18.69 39.364 22.0239 39.364 25.5C39.364 28.9761 37.956 32.3099 35.4498 34.7681C32.9437 37.2261 29.5445 38.607 26 38.607C22.4557 38.607 19.0565 37.2261 16.5503 34.7681C14.0441 32.3099 12.6361 28.9761 12.6361 25.5C12.6361 22.0239 14.0441 18.69 16.5503 16.2319ZM42.3273 14.3458C42.9196 13.7647 43.2524 12.9767 43.2524 12.155C43.2524 11.3333 42.9196 10.5452 42.3273 9.96419C41.7347 9.38316 40.9313 9.05674 40.0934 9.05674C39.2557 9.05674 38.4521 9.38316 37.8598 9.96419C37.2672 10.5452 36.9344 11.3333 36.9344 12.155C36.9344 12.9767 37.2672 13.7647 37.8598 14.3458C38.4521 14.9268 39.2557 15.2532 40.0934 15.2532C40.9313 15.2532 41.7347 14.9268 42.3273 14.3458Z" fill="black"/>
</svg>
