<svg width="62" height="72" viewBox="0 0 62 72" fill="none" xmlns="http://www.w3.org/2000/svg">
<path d="M56.5994 26.4756C56.5994 15.1848 45.2507 6.00012 31.2997 6.00012C17.3487 6.00012 6 15.1847 6 26.4805C6.0043 27.0445 6.35603 40.5517 26.6191 64.3534C27.0362 65.0062 27.6685 65.5654 28.4541 65.9764C29.2397 66.3873 30.1517 66.636 31.1012 66.698C34.0273 66.698 36.0234 64.2415 36.2176 63.9917C56.61 40.1768 56.61 27.0131 56.5994 26.4756ZM31.2998 34.7223C29.0714 34.7223 26.893 34.2188 25.0401 33.2755C23.1872 32.3321 21.7431 30.9913 20.8903 29.4226C20.0375 27.8539 19.8143 26.1278 20.2491 24.4625C20.6838 22.7972 21.7569 21.2675 23.3327 20.0668C24.9085 18.8662 26.9161 18.0486 29.1017 17.7173C31.2873 17.3861 33.5528 17.5561 35.6116 18.2058C37.6705 18.8556 39.4302 19.956 40.6682 21.3678C41.9063 22.7796 42.5671 24.4394 42.5671 26.1373C42.5637 28.4134 41.3755 30.5955 39.2632 32.2049C37.1509 33.8144 34.2871 34.7197 31.2998 34.7223Z" fill="#D22F27"/>
<path d="M56.5993 26.4756C56.5993 15.1848 45.2506 6.00012 31.2996 6.00012C29.2227 6.00709 27.1559 6.2212 25.1519 6.63697C38.5066 7.18158 49.1717 16.1188 49.1717 27.06C49.1825 27.5977 49.1825 40.7613 28.79 64.5762C28.5153 64.9178 28.2032 65.241 27.8569 65.5425C28.2666 65.8926 28.7655 66.1756 29.3232 66.3742C29.8809 66.5729 30.4858 66.6831 31.1011 66.6981C34.0273 66.6981 36.0233 64.2416 36.2176 63.9918C56.61 40.1768 56.61 27.0131 56.5993 26.4756Z" fill="#EA5A47"/>
<path d="M31.1012 66.698C30.1517 66.6359 29.2397 66.3873 28.4541 65.9763C27.6685 65.5654 27.0363 65.0062 26.6191 64.3534C6.35555 40.5517 6.0043 27.0445 6 26.4805C6 15.1846 17.3485 6 31.2997 6C45.2508 6 56.5994 15.1846 56.5994 26.4756C56.6102 27.0133 56.6102 40.1769 36.2176 63.9918C36.0234 64.2415 34.0273 66.698 31.1012 66.698Z" stroke="black" stroke-width="10.2795" stroke-linecap="round" stroke-linejoin="round"/>
<path d="M31.2998 34.7223C29.0714 34.7223 26.893 34.2188 25.0401 33.2754C23.1872 32.3321 21.7431 30.9913 20.8904 29.4226C20.0376 27.8539 19.8145 26.1277 20.2492 24.4624C20.684 22.7971 21.7571 21.2674 23.3329 20.0668C24.9086 18.8662 26.9163 18.0486 29.1019 17.7173C31.2875 17.3861 33.553 17.5561 35.6118 18.2059C37.6706 18.8557 39.4303 19.956 40.6684 21.3678C41.9064 22.7796 42.5672 24.4394 42.5672 26.1373C42.5639 28.4134 41.3757 30.5956 39.2633 32.205C37.151 33.8145 34.2871 34.7198 31.2998 34.7223Z" stroke="black" stroke-width="10.2795" stroke-linecap="round" stroke-linejoin="round"/>
</svg>
