<svg width="56" height="55" viewBox="0 0 56 55" fill="none" xmlns="http://www.w3.org/2000/svg">
<path d="M52.4779 2.81552C52.4779 2.81552 49.7338 5.47404 45.8832 5.95259C45.8832 5.95259 39.8196 -2.18263 31.1446 4.8892C27.2496 8.18578 26.8956 15.1513 27.5595 17.6503C27.5595 17.6503 15.7863 18.7669 5.51794 4.30436C5.51794 4.30436 0.914919 13.8752 8.52759 21.5319C8.52759 21.5319 6.27755 21.9572 4.13872 19.8304C4.13872 19.8304 3.12778 29.7203 12.3339 32.4853C12.3339 32.4853 11.7143 33.7614 7.99647 32.4853C7.99647 32.4853 8.61608 40.5673 17.3796 41.7371C17.3796 41.7371 12.6453 47.5859 2 46.8415C2 46.8415 19.5927 62.6866 38.6245 43.5449C49.2469 32.698 48.8928 17.0656 48.7158 14.7261C48.7158 14.7261 52.9107 10.8978 54 8.45185C54 8.45185 50.7518 9.72797 48.0962 9.72797C48.0962 9.72771 51.6369 7.49451 52.4779 2.81552Z" fill="black" stroke="black" stroke-width="3.87602" stroke-miterlimit="10" stroke-linecap="round" stroke-linejoin="round"/>
</svg>
