<svg width="49" height="40" viewBox="0 0 49 40" fill="none" xmlns="http://www.w3.org/2000/svg">
<path d="M48.5 20C48.5 8.9543 37.6429 0 24.25 0C10.8571 0 0 8.9543 0 20C0 31.0457 10.8571 40 24.25 40C37.6429 40 48.5 31.0457 48.5 20Z" fill="#00D95F"/>
<path d="M12.1252 29.2597L13.8651 23.9242C12.4619 21.8458 12.0161 19.4204 12.6095 17.0932C13.2029 14.7659 14.7956 12.6929 17.0954 11.2545C19.3953 9.8162 22.248 9.10896 25.13 9.2626C28.0121 9.41625 30.7302 10.4205 32.7855 12.0911C34.8409 13.7616 36.0956 15.9865 36.3195 18.3573C36.5434 20.7281 35.7214 23.0859 34.0044 24.998C32.2874 26.9101 29.7905 28.2482 26.972 28.7669C24.1534 29.2855 21.2023 28.9499 18.6601 27.8215L12.1252 29.2597ZM18.9751 25.8249L19.3793 26.0223C21.2207 26.921 23.3714 27.2929 25.4963 27.08C27.6212 26.8672 29.6009 26.0815 31.1269 24.8456C32.6529 23.6096 33.6395 21.9927 33.9329 20.2468C34.2263 18.501 33.81 16.7242 32.749 15.1935C31.688 13.6628 30.0418 12.464 28.0669 11.784C26.092 11.1041 23.8995 10.9811 21.8309 11.4343C19.7623 11.8875 17.9339 12.8914 16.6306 14.2895C15.3273 15.6877 14.6222 17.4015 14.6254 19.164C14.6237 20.6254 15.1145 22.0585 16.0434 23.3038L16.2968 23.6479L15.3241 26.6258L18.9751 25.8249Z" fill="white"/>
<path fill-rule="evenodd" clip-rule="evenodd" d="M28.784 20.5341C28.547 20.3767 28.2696 20.266 27.9728 20.2103C27.6761 20.1546 27.3678 20.1554 27.0715 20.2126C26.6262 20.3649 26.3385 20.9402 26.0508 21.2278C25.9902 21.2968 25.901 21.3451 25.8001 21.3638C25.6992 21.3825 25.5935 21.3703 25.5029 21.3293C23.8728 20.8037 22.5065 19.8397 21.6258 18.5939C21.5506 18.5162 21.5151 18.4175 21.5266 18.3186C21.5381 18.2197 21.5958 18.1283 21.6874 18.0637C22.0083 17.8022 22.2439 17.4782 22.3724 17.1218C22.401 16.7288 22.2916 16.3372 22.0573 15.9938C21.8762 15.5125 21.5316 15.0839 21.0641 14.7587C20.823 14.6694 20.5556 14.6395 20.2943 14.6725C20.033 14.7055 19.7889 14.8 19.5913 14.9448C19.2485 15.1883 18.9764 15.4921 18.795 15.8338C18.6136 16.1754 18.5276 16.5462 18.5433 16.9188C18.5443 17.128 18.5766 17.3364 18.6392 17.5392C18.7983 18.0265 19.0429 18.492 19.3653 18.921C19.5979 19.2497 19.8517 19.5679 20.1256 19.8742C21.0158 20.8804 22.1348 21.7347 23.4205 22.3897C24.0656 22.7225 24.7551 22.9932 25.4754 23.1962C26.2237 23.4755 27.0498 23.5827 27.866 23.5064C28.3311 23.4485 28.7718 23.2973 29.1492 23.0661C29.5267 22.835 29.8294 22.531 30.0307 22.181C30.1489 21.9695 30.1848 21.7331 30.1334 21.5042C30.0101 21.0361 29.2497 20.7597 28.784 20.5341Z" fill="white"/>
</svg>
