<svg width="45" height="29" viewBox="0 0 45 29" fill="none" xmlns="http://www.w3.org/2000/svg">
<path d="M3.06818 29H10.2274V14.0644L0 7.4751V26.3643C0 27.8227 1.37559 29 3.06818 29Z" fill="#4285F4"/>
<path d="M34.7726 29H41.9318C43.6296 29 45 27.8184 45 26.3643V7.4751L34.7726 14.0644" fill="#34A853"/>
<path d="M34.7726 2.64321V14.0646L45 7.47533V3.96104C45 0.701513 40.6687 -1.15659 37.6363 0.798157" fill="#FBBC04"/>
<path d="M10.2267 14.0642V2.64282L22.4996 10.55L34.7725 2.64282V14.0642L22.4996 21.9713" fill="#EA4335"/>
<path d="M0 3.96104V7.47533L10.2274 14.0646V2.64321L7.36375 0.798157C4.32621 -1.15659 0 0.701513 0 3.96104Z" fill="#C5221F"/>
</svg>
